<svg width="8" height="6" viewBox="0 0 8 6" fill="none" xmlns="http://www.w3.org/2000/svg">
<path d="M0.799988 1.4C0.799988 1.18783 0.884273 0.984342 1.0343 0.834313C1.18433 0.684284 1.38781 0.599998 1.59999 0.599998H3.99999C4.21216 0.599998 4.41564 0.684284 4.56567 0.834313C4.7157 0.984342 4.79999 1.18783 4.79999 1.4V4.6C4.79999 4.81217 4.7157 5.01565 4.56567 5.16568C4.41564 5.31571 4.21216 5.4 3.99999 5.4H1.59999C1.38781 5.4 1.18433 5.31571 1.0343 5.16568C0.884273 5.01565 0.799988 4.81217 0.799988 4.6V1.4ZM5.82119 1.8424C5.75476 1.87559 5.69888 1.92663 5.65981 1.98979C5.62074 2.05295 5.60003 2.12573 5.59999 2.2V3.8C5.60003 3.87426 5.62074 3.94705 5.65981 4.01021C5.69888 4.07337 5.75476 4.1244 5.82119 4.1576L6.62119 4.5576C6.68216 4.58806 6.7499 4.60245 6.81799 4.59938C6.88607 4.59631 6.95225 4.5759 7.01023 4.54008C7.06821 4.50425 7.11608 4.45421 7.14929 4.39469C7.1825 4.33517 7.19995 4.26816 7.19999 4.2V1.8C7.19995 1.73184 7.1825 1.66483 7.14929 1.60531C7.11608 1.54579 7.06821 1.49574 7.01023 1.45992C6.95225 1.4241 6.88607 1.40368 6.81799 1.40062C6.7499 1.39755 6.68216 1.41193 6.62119 1.4424L5.82119 1.8424Z" fill="#18181B"/>
</svg>
