<svg width="18" height="14" viewBox="0 0 18 14" fill="none" xmlns="http://www.w3.org/2000/svg">
<path d="M2.47631 11.857C1.85119 11.2319 1.5 10.3841 1.5 9.5C1.49996 8.74327 1.75734 8.00905 2.22984 7.41797C2.70234 6.82689 3.36185 6.41412 4.1 6.2475C3.97326 5.70792 3.9554 5.14848 4.04747 4.60191C4.13954 4.05535 4.33969 3.53264 4.63621 3.06436C4.93273 2.59608 5.31966 2.19164 5.77437 1.8747C6.22908 1.55776 6.74243 1.33469 7.28439 1.21854C7.82635 1.10239 8.38603 1.0955 8.93068 1.19825C9.47534 1.30101 9.99403 1.51136 10.4564 1.817C10.9188 2.12264 11.3156 2.51742 11.6235 2.97825C11.9315 3.43908 12.1445 3.9567 12.25 4.50083C12.8006 4.48982 13.3479 4.58805 13.8602 4.78985C14.3726 4.99165 14.8399 5.29302 15.2351 5.67652C15.6303 6.06003 15.9455 6.51806 16.1626 7.02415C16.3797 7.53024 16.4943 8.07434 16.4998 8.62499C16.5053 9.17565 16.4016 9.72193 16.1947 10.2323C15.9878 10.7426 15.6817 11.2068 15.2943 11.5982C14.9069 11.9895 14.4457 12.3002 13.9375 12.5122C13.4292 12.7242 12.884 12.8333 12.3333 12.8333H4.83333C3.94928 12.8333 3.10143 12.4821 2.47631 11.857Z" stroke="white" stroke-width="2" stroke-linecap="round" stroke-linejoin="round"/>
</svg>
